<svg width="24" height="25" viewBox="0 0 24 25" fill="none" xmlns="http://www.w3.org/2000/svg">
<path d="M20.9727 7.17443C20.5083 7.79395 19.9469 8.33436 19.3102 8.77479C19.3102 8.93662 19.3102 9.09845 19.3102 9.26928C19.3153 12.2081 18.1414 15.0261 16.0517 17.0915C13.9619 19.1569 11.1311 20.2969 8.19393 20.2559C6.49587 20.2616 4.81955 19.8739 3.2963 19.1231C3.21416 19.0872 3.16119 19.006 3.1615 18.9163V18.8174C3.1615 18.6883 3.26611 18.5837 3.39515 18.5837C5.0643 18.5286 6.6739 17.9499 7.99622 16.9294C6.48541 16.8989 5.12607 16.0039 4.50048 14.6277C4.46889 14.5526 4.47872 14.4663 4.52645 14.4002C4.57417 14.3341 4.65288 14.2977 4.73413 14.3041C5.1933 14.3502 5.65706 14.3075 6.10008 14.1782C4.43227 13.832 3.17909 12.4474 2.99974 10.7527C2.99337 10.6714 3.0298 10.5927 3.09588 10.5449C3.16195 10.4972 3.24812 10.4873 3.32326 10.519C3.77082 10.7165 4.25397 10.8205 4.74312 10.8246C3.28172 9.86549 2.65049 8.04108 3.20643 6.38325C3.26382 6.22216 3.40169 6.10315 3.56938 6.06997C3.73706 6.03678 3.90984 6.09431 4.0242 6.22142C5.99627 8.32028 8.70592 9.57099 11.5818 9.70982C11.5082 9.41588 11.472 9.11379 11.474 8.81075C11.5009 7.22175 12.4841 5.80624 13.9633 5.2269C15.4424 4.64757 17.1248 5.01906 18.2229 6.16747C18.9713 6.02488 19.6949 5.77348 20.3706 5.42124C20.4201 5.39034 20.4829 5.39034 20.5324 5.42124C20.5633 5.47076 20.5633 5.53355 20.5324 5.58307C20.2051 6.33255 19.6522 6.96115 18.9508 7.38122C19.565 7.30999 20.1684 7.1651 20.7481 6.94967C20.7969 6.91645 20.861 6.91645 20.9098 6.94967C20.9507 6.96837 20.9813 7.00414 20.9934 7.04745C21.0055 7.09076 20.9979 7.13721 20.9727 7.17443Z" fill="white"/>
</svg>
