<svg width="10" height="19" viewBox="0 0 10 19" fill="none" xmlns="http://www.w3.org/2000/svg">
<path d="M9.5 3.45703H6.5C5.9477 3.45703 5.5 3.90475 5.5 4.45703V7.45703H9.5C9.6137 7.45451 9.7216 7.50743 9.7892 7.59893C9.8568 7.69043 9.8758 7.80903 9.84 7.91703L9.1 10.117C9.0318 10.3189 8.8431 10.4554 8.63 10.457H5.5V17.957C5.5 18.2331 5.2761 18.457 5 18.457H2.5C2.22386 18.457 2 18.2331 2 17.957V10.457H0.5C0.22386 10.457 0 10.2331 0 9.95703V7.95703C0 7.68093 0.22386 7.45703 0.5 7.45703H2V4.45703C2 2.24789 3.7909 0.457031 6 0.457031H9.5C9.7761 0.457031 10 0.680891 10 0.957031V2.95703C10 3.23317 9.7761 3.45703 9.5 3.45703Z" fill="white"/>
</svg>
