<svg width="18" height="19" viewBox="0 0 18 19" fill="none" xmlns="http://www.w3.org/2000/svg">
<path fill-rule="evenodd" clip-rule="evenodd" d="M13 0.457031H5C2.23858 0.457031 0 2.69561 0 5.45703V13.457C0 16.2184 2.23858 18.457 5 18.457H13C15.7614 18.457 18 16.2184 18 13.457V5.45703C18 2.69561 15.7614 0.457031 13 0.457031ZM16.25 13.457C16.2445 15.2496 14.7926 16.7015 13 16.707H5C3.20735 16.7015 1.75549 15.2496 1.75 13.457V5.45703C1.75549 3.66438 3.20735 2.21252 5 2.20703H13C14.7926 2.21252 16.2445 3.66438 16.25 5.45703V13.457ZM13.75 5.70703C14.3023 5.70703 14.75 5.25931 14.75 4.70703C14.75 4.15475 14.3023 3.70703 13.75 3.70703C13.1977 3.70703 12.75 4.15475 12.75 4.70703C12.75 5.25931 13.1977 5.70703 13.75 5.70703ZM9 4.95703C6.51472 4.95703 4.5 6.97175 4.5 9.45703C4.5 11.9423 6.51472 13.957 9 13.957C11.4853 13.957 13.5 11.9423 13.5 9.45703C13.5027 8.26273 13.0294 7.1166 12.1849 6.27211C11.3404 5.42762 10.1943 4.95437 9 4.95703ZM6.25 9.45703C6.25 10.9758 7.4812 12.207 9 12.207C10.5188 12.207 11.75 10.9758 11.75 9.45703C11.75 7.93823 10.5188 6.70703 9 6.70703C7.4812 6.70703 6.25 7.93823 6.25 9.45703Z" fill="white"/>
</svg>
