<svg width="21" height="15" viewBox="0 0 21 15" fill="none" xmlns="http://www.w3.org/2000/svg">
<path d="M20.5933 2.66004C20.4794 2.23744 20.2568 1.85204 19.9477 1.54221C19.6386 1.23237 19.2537 1.0089 18.8313 0.894039C17.2653 0.464039 11.0003 0.457039 11.0003 0.457039C11.0003 0.457039 4.73633 0.450039 3.16933 0.861039C2.74725 0.981185 2.36315 1.20782 2.0539 1.51917C1.74464 1.83053 1.52062 2.21616 1.40333 2.63904C0.99033 4.20504 0.98633 7.45304 0.98633 7.45304C0.98633 7.45304 0.98233 10.717 1.39233 12.267C1.62233 13.124 2.29733 13.801 3.15533 14.032C4.73733 14.462 10.9853 14.469 10.9853 14.469C10.9853 14.469 17.2503 14.476 18.8163 14.066C19.2388 13.9514 19.6241 13.7284 19.934 13.4192C20.2439 13.11 20.4677 12.7253 20.5833 12.303C20.9973 10.738 21.0003 7.49104 21.0003 7.49104C21.0003 7.49104 21.0203 4.22604 20.5933 2.66004ZM8.99633 10.462L9.00133 4.46204L14.2083 7.46704L8.99633 10.462Z" fill="white"/>
</svg>
